# xmcd
#
# Track frame offsets: 
#        183
#        10683
#        24558
#        34983
#        47208
#        58758
#        80208
#        97983
#        119958
#        129033
#        140283
#        158133
#        170883
#        185583
#
# Disc length: 2616 seconds
#
# Revision: 7
# Processed by: cddbd v1.5.2PL0 Copyright (c) Steve Scherf et al.
# Submitted via: ExactAudioCopyFreeDBPlugin 1.0
#
DISCID=c30a360e
DTITLE=John Mayall - Thru The Years
DYEAR=1971
DGENRE=Blues
TTITLE0=Crocodile Walk
TTITLE1=My Baby Is Sweeter
TTITLE2=Crawling Up A Hill
TTITLE3=Mama, Talk To Your Daughter
TTITLE4=Alabama Blues
TTITLE5=Out Of Reach
TTITLE6=Greeny
TTITLE7=Curly
TTITLE8=Missing You
TTITLE9=Please Don't Tell
TTITLE10=Your Funeral And My Trial
TTITLE11=Suspicions (Part One)
TTITLE12=Knockers Step Forward
TTITLE13=Hide And Seek
EXTD=
EXTT0=
EXTT1=
EXTT2=
EXTT3=
EXTT4=
EXTT5=
EXTT6=
EXTT7=
EXTT8=
EXTT9=
EXTT10=
EXTT11=
EXTT12=
EXTT13=
PLAYORDER=
